<svg xmlns="http://www.w3.org/2000/svg" version="1.1" xmlns:xlink="http://www.w3.org/1999/xlink" xmlns:svgjs="http://svgjs.dev/svgjs" width="32" height="32"><svg id="SvgjsSvg1013" data-name="Calque 2" xmlns="http://www.w3.org/2000/svg" width="32" height="32" viewBox="0 0 32 32">
  <rect width="32" height="32" rx="4.31" ry="4.31"></rect>
  <path d="M20.42,18.68v.51c.15,0,.35.03.62.07s.47.09.62.15c.17.07.28.18.33.33s.08.32.08.52v1.17c0,.25-.02.49-.06.73-.14.14-.38.27-.72.4-.34.12-.72.19-1.13.19s-1.04-.11-1.48-.35-.79-.56-1.09-.97c-.29-.4-.51-.88-.66-1.43s-.23-1.15-.23-1.77.03-.82.09-1.2c.27-.05.53-.11.78-.18.82-.24,1.59-.6,2.27-1.11.63-.46,1.14-1.02,1.52-1.69.24.15.44.34.61.56.23.3.42.62.56.99s.27.74.36,1.13h.57l-.06-3.45h-.56l-.29.47c-.26-.15-.95-.44-.87-.41.25-.65.38-1.38.38-2.18,0-1.43-.56-2.58-1.68-3.44-.63-.49-1.37-.83-2.22-1.04-.45-.11-.93-.18-1.43-.22h0c-.24-.02-.48-.03-.73-.03H7.22v.95c.25.02.53.05.88.11.34.05.68.13,1.03.25.33.12.54.32.64.56s.13.53.13.85v13.84c0,.35-.06.64-.18.87-.12.23-.32.4-.59.52-.16.08-.45.13-.86.17-.41.05-.73.08-.95.1v.95h8.28v-.95c-.34,0-.73-.04-1.14-.1s-.7-.11-.86-.17c-.32-.12-.54-.31-.65-.54s-.15-.52-.15-.83v-5.82h2.32c-.07.35-.1.72-.1,1.1,0,.78.13,1.48.39,2.12.26.63.61,1.17,1.06,1.6.44.44.95.77,1.54,1.01s1.19.35,1.83.35,1.19-.08,1.81-.22c.61-.15,1.23-.36,1.85-.64,0-.12-.02-.29-.03-.48,0-.19,0-.57,0-1.13v-.76c0-.17.03-.32.09-.45.06-.12.15-.23.3-.3.11-.06.27-.1.46-.13.19-.03.34-.05.45-.07v-.51h-4.35,0ZM16.37,14.5c-.33.35-.61.74-.84,1.18-.03.07-.07.12-.1.19-.4.08-.85.11-1.35.11h-1.38V7.47h2.24c.63.03,1.17.14,1.6.34.04.02.08.04.11.06h0c.09.05.18.1.26.14.34.21.64.48.87.79.3.4.51.87.63,1.4.12.53.18,1.06.18,1.58s-.05.79-.15,1.26c0,.07-.03.12-.05.19-.16.05-.32.11-.47.17-.38.16-.74.36-1.05.61-.19.14-.37.31-.53.48h.02Z" style="fill: #fff;"></path>
</svg><style>@media (prefers-color-scheme: light) { :root { filter: none; } }
@media (prefers-color-scheme: dark) { :root { filter: none; } }
</style></svg>